<?xml version="1.0" encoding="UTF-8" standalone="no"?>
<!DOCTYPE svg PUBLIC "-//W3C//DTD SVG 1.1//EN" "http://www.w3.org/Graphics/SVG/1.1/DTD/svg11.dtd">
<svg xmlns:dc="http://purl.org/dc/elements/1.1/" xmlns="http://www.w3.org/2000/svg" version="1.1" xmlns:xl="http://www.w3.org/1999/xlink" viewBox="-700.1743 -291 1880.0764 1216.4277" width="1880.0764" height="1216.4277">
  <defs>
    <marker orient="auto" overflow="visible" markerUnits="strokeWidth" id="FilledArrow_Marker" stroke-linejoin="miter" stroke-miterlimit="10" viewBox="-1 -2 5 4" markerWidth="5" markerHeight="4" color="#a5a5a5">
      <g>
        <path d="M 2.24 0 L 0 -.84 L 0 .84 Z" fill="currentColor" stroke="currentColor" stroke-width="1"/>
      </g>
    </marker>
    <marker orient="auto" overflow="visible" markerUnits="strokeWidth" id="FilledArrow_Marker_2" stroke-linejoin="miter" stroke-miterlimit="10" viewBox="-1 -2 5 4" markerWidth="5" markerHeight="4" color="#a5a5a5">
      <g>
        <path d="M 2.24 0 L 0 -.84 L 0 .84 Z" fill="currentColor" stroke="currentColor" stroke-width="1"/>
      </g>
    </marker>
    <marker orient="auto" overflow="visible" markerUnits="strokeWidth" id="FilledArrow_Marker_3" stroke-linejoin="miter" stroke-miterlimit="10" viewBox="-1 -2 5 4" markerWidth="5" markerHeight="4" color="#005493">
      <g>
        <path d="M 2.24 0 L 0 -.84 L 0 .84 Z" fill="currentColor" stroke="currentColor" stroke-width="1"/>
      </g>
    </marker>
  </defs>
  <g id="Canvas_1" fill="none" fill-opacity="1" stroke="none" stroke-opacity="1" stroke-dasharray="none">
    <title>Canvas 1</title>
    <g id="Canvas_1_structures">
      <title>structures</title>
      <g id="Graphic_240">
        <path d="M -21 -281 L 707.4596 -281 C 712.4302 -281 716.4596 -276.97056 716.4596 -272 L 716.4596 78 C 716.4596 82.97056 712.4302 87 707.4596 87 L -21 87 C -25.970563 87 -30 82.97056 -30 78 L -30 -272 C -30 -276.97056 -25.970563 -281 -21 -281 Z" fill="#dadada"/>
        <text transform="translate(-5 -256)" fill="black">
          <tspan font-family="Arial" font-weight="bold" font-size="32" fill="black" x="122.40948" y="29">Organisation &amp; Versionierung</tspan>
        </text>
      </g>
      <g id="Graphic_221">
        <path d="M 19 -188 L 667.4596 -188 C 672.4302 -188 676.4596 -183.97056 676.4596 -179 L 676.4596 60.90909 C 676.4596 65.87965 672.4302 69.90909 667.4596 69.90909 L 19 69.90909 C 14.029437 69.90909 10 65.87965 10 60.90909 L 10 -179 C 10 -183.97056 14.029437 -188 19 -188 Z" fill="#999"/>
        <text transform="translate(35 -163)" fill="white">
          <tspan font-family="Arial" font-weight="bold" font-size="32" fill="white" x="210.4251" y="29">Dateiformate</tspan>
        </text>
      </g>
    </g>
    <g id="Canvas_1_Modellieren">
      <title>Modellieren</title>
      <g id="Line_43">
        <path d="M 1065.4209 709.5293 C 1128.7143 567.175 1121.8997 445.3917 1042.6807 308.83144" marker-end="url(#FilledArrow_Marker)" stroke="#a5a5a5" stroke-linecap="round" stroke-linejoin="round" stroke-dasharray="10.0,30.0" stroke-width="10"/>
      </g>
      <g id="Line_75">
        <path d="M 521.3024 619.3398 C 728.98345 667.8545 1002.1844 588.6227 1001.0708 314.25086" marker-end="url(#FilledArrow_Marker_2)" stroke="#a5a5a5" stroke-linecap="round" stroke-linejoin="round" stroke-width="10"/>
      </g>
      <g id="Graphic_48">
        <path d="M 882.479 196.88977 L 1104.979 196.88977 C 1109.9496 196.88977 1113.979 200.9192 1113.979 205.88977 L 1113.979 263.38977 C 1113.979 268.36033 1109.9496 272.38977 1104.979 272.38977 L 882.479 272.38977 C 877.5085 272.38977 873.479 268.36033 873.479 263.38977 L 873.479 205.88977 C 873.479 200.9192 877.5085 196.88977 882.479 196.88977 Z" fill="white"/>
        <path d="M 882.479 196.88977 L 1104.979 196.88977 C 1109.9496 196.88977 1113.979 200.9192 1113.979 205.88977 L 1113.979 263.38977 C 1113.979 268.36033 1109.9496 272.38977 1104.979 272.38977 L 882.479 272.38977 C 877.5085 272.38977 873.479 268.36033 873.479 263.38977 L 873.479 205.88977 C 873.479 200.9192 877.5085 196.88977 882.479 196.88977 Z" stroke="#a5a5a5" stroke-linecap="round" stroke-linejoin="round" stroke-width="10"/>
        <text transform="translate(878.479 218.1654)" fill="#a5a5a5">
          <tspan font-family="Arial" font-weight="bold" font-size="29" fill="#a5a5a5" x="34.67871" y="26">Modellieren</tspan>
        </text>
      </g>
      <g id="Line_45">
        <path d="M 937.1704 191.88977 C 769.8389 91.22825 494.76605 113.56904 386.108 355.2809" marker-end="url(#FilledArrow_Marker)" stroke="#a5a5a5" stroke-linecap="round" stroke-linejoin="round" stroke-width="10"/>
      </g>
    </g>
    <g id="Canvas_1_technical_Wickham_steps">
      <title>technical Wickham steps</title>
      <g id="Graphic_184">
        <path d="M 283.1048 544.5293 L 505.6048 544.5293 C 510.57536 544.5293 514.6048 548.55874 514.6048 553.5293 L 514.6048 611.0293 C 514.6048 615.9999 510.57536 620.0293 505.6048 620.0293 L 283.1048 620.0293 C 278.13424 620.0293 274.1048 615.9999 274.1048 611.0293 L 274.1048 553.5293 C 274.1048 548.55874 278.13424 544.5293 283.1048 544.5293 Z" fill="white"/>
        <path d="M 283.1048 544.5293 L 505.6048 544.5293 C 510.57536 544.5293 514.6048 548.55874 514.6048 553.5293 L 514.6048 611.0293 C 514.6048 615.9999 510.57536 620.0293 505.6048 620.0293 L 283.1048 620.0293 C 278.13424 620.0293 274.1048 615.9999 274.1048 611.0293 L 274.1048 553.5293 C 274.1048 548.55874 278.13424 544.5293 283.1048 544.5293 Z" stroke="black" stroke-linecap="round" stroke-linejoin="round" stroke-width="5"/>
      </g>
      <g id="Graphic_185">
        <path d="M 283.1048 431.5293 L 505.6048 431.5293 C 510.57536 431.5293 514.6048 435.55874 514.6048 440.5293 L 514.6048 498.0293 C 514.6048 502.99987 510.57536 507.0293 505.6048 507.0293 L 283.1048 507.0293 C 278.13424 507.0293 274.1048 502.99987 274.1048 498.0293 L 274.1048 440.5293 C 274.1048 435.55874 278.13424 431.5293 283.1048 431.5293 Z" fill="white"/>
        <path d="M 283.1048 431.5293 L 505.6048 431.5293 C 510.57536 431.5293 514.6048 435.55874 514.6048 440.5293 L 514.6048 498.0293 C 514.6048 502.99987 510.57536 507.0293 505.6048 507.0293 L 283.1048 507.0293 C 278.13424 507.0293 274.1048 502.99987 274.1048 498.0293 L 274.1048 440.5293 C 274.1048 435.55874 278.13424 431.5293 283.1048 431.5293 Z" stroke="black" stroke-linecap="round" stroke-linejoin="round" stroke-width="5"/>
      </g>
      <g id="Line_186">
        <path d="M 517.1048 590.3022 C 612.2924 575.7029 631.9344 506.09697 552.8736 476.91736" marker-end="url(#FilledArrow_Marker_3)" stroke="#005493" stroke-linecap="round" stroke-linejoin="round" stroke-width="10"/>
      </g>
      <g id="Line_124">
        <path d="M 366.38996 662.0293 C 455.11933 911.5249 778.2392 979.7123 978.7829 819.4047" marker-end="url(#FilledArrow_Marker_3)" stroke="#005493" stroke-linecap="round" stroke-linejoin="round" stroke-width="10"/>
      </g>
      <g id="Graphic_122">
        <path d="M 179.1572 394.5293 L 507.3024 394.5293 C 512.27296 394.5293 516.3024 398.55874 516.3024 403.5293 L 516.3024 648.0293 C 516.3024 652.9999 512.27296 657.0293 507.3024 657.0293 L 179.1572 657.0293 C 174.18664 657.0293 170.1572 652.9999 170.1572 648.0293 L 170.1572 403.5293 C 170.1572 398.55874 174.18664 394.5293 179.1572 394.5293 Z" fill="white"/>
        <path d="M 179.1572 394.5293 L 507.3024 394.5293 C 512.27296 394.5293 516.3024 398.55874 516.3024 403.5293 L 516.3024 648.0293 C 516.3024 652.9999 512.27296 657.0293 507.3024 657.0293 L 179.1572 657.0293 C 174.18664 657.0293 170.1572 652.9999 170.1572 648.0293 L 170.1572 403.5293 C 170.1572 398.55874 174.18664 394.5293 179.1572 394.5293 Z" stroke="#005493" stroke-linecap="round" stroke-linejoin="round" stroke-width="10"/>
      </g>
      <g id="Graphic_120">
        <path d="M 211.2298 544.5293 L 475.2298 544.5293 C 480.20036 544.5293 484.2298 548.55874 484.2298 553.5293 L 484.2298 611.0293 C 484.2298 615.9999 480.20036 620.0293 475.2298 620.0293 L 211.2298 620.0293 C 206.25924 620.0293 202.2298 615.9999 202.2298 611.0293 L 202.2298 553.5293 C 202.2298 548.55874 206.25924 544.5293 211.2298 544.5293 Z" fill="white"/>
        <text transform="translate(207.2298 549.3306)" fill="#005493">
          <tspan font-family="Arial" font-weight="bold" font-size="29" fill="#005493" x="52.200195" y="26">Anpassen &amp; </tspan>
          <tspan font-family="Arial" font-weight="bold" font-size="29" fill="#005493" x="9.507324" y="58.94873">Problemzerlegung</tspan>
        </text>
      </g>
      <g id="Graphic_119">
        <path d="M 231.9798 431.5293 L 454.4798 431.5293 C 459.45036 431.5293 463.4798 435.55874 463.4798 440.5293 L 463.4798 498.0293 C 463.4798 502.99987 459.45036 507.0293 454.4798 507.0293 L 231.9798 507.0293 C 227.00924 507.0293 222.9798 502.99987 222.9798 498.0293 L 222.9798 440.5293 C 222.9798 435.55874 227.00924 431.5293 231.9798 431.5293 Z" fill="#005493"/>
        <text transform="translate(227.9798 452.80494)" fill="white">
          <tspan font-family="Arial" font-size="29" fill="white" x="45.921875" y="26">Bereinigen</tspan>
        </text>
      </g>
      <g id="Line_116">
        <line x1="180.65211" y1="48.5" x2="284.9203" y2="354.60015" marker-end="url(#FilledArrow_Marker_3)" stroke="#005493" stroke-linecap="round" stroke-linejoin="round" stroke-width="10"/>
      </g>
      <g id="Graphic_113">
        <path d="M 389.84 -32 L 612.34 -32 C 617.31056 -32 621.34 -27.970563 621.34 -23 L 621.34 34.5 C 621.34 39.470563 617.31056 43.5 612.34 43.5 L 389.84 43.5 C 384.86944 43.5 380.84 39.470563 380.84 34.5 L 380.84 -23 C 380.84 -27.970563 384.86944 -32 389.84 -32 Z" fill="white"/>
        <path d="M 389.84 -32 L 612.34 -32 C 617.31056 -32 621.34 -27.970563 621.34 -23 L 621.34 34.5 C 621.34 39.470563 617.31056 43.5 612.34 43.5 L 389.84 43.5 C 384.86944 43.5 380.84 39.470563 380.84 34.5 L 380.84 -23 C 380.84 -27.970563 384.86944 -32 389.84 -32 Z" stroke="#005493" stroke-linecap="round" stroke-linejoin="round" stroke-width="10"/>
        <text transform="translate(385.84 -10.724365)" fill="#005493">
          <tspan font-family="Arial" font-weight="bold" font-size="29" fill="#005493" x="69.32861" y="26">Export</tspan>
        </text>
      </g>
      <g id="Line_112">
        <path d="M 342.2384 389.5293 L 342.2262 387.8498 L 469.1499 82.57243" marker-end="url(#FilledArrow_Marker_3)" stroke="#005493" stroke-linecap="round" stroke-linejoin="round" stroke-width="10"/>
      </g>
      <g id="Graphic_121">
        <path d="M 54.84 -32 L 277.34 -32 C 282.31056 -32 286.34 -27.970563 286.34 -23 L 286.34 34.5 C 286.34 39.470563 282.31056 43.5 277.34 43.5 L 54.84 43.5 C 49.86944 43.5 45.84 39.470563 45.84 34.5 L 45.84 -23 C 45.84 -27.970563 49.86944 -32 54.84 -32 Z" fill="white"/>
        <path d="M 54.84 -32 L 277.34 -32 C 282.31056 -32 286.34 -27.970563 286.34 -23 L 286.34 34.5 C 286.34 39.470563 282.31056 43.5 277.34 43.5 L 54.84 43.5 C 49.86944 43.5 45.84 39.470563 45.84 34.5 L 45.84 -23 C 45.84 -27.970563 49.86944 -32 54.84 -32 Z" stroke="#005493" stroke-linecap="round" stroke-linejoin="round" stroke-width="10"/>
        <text transform="translate(50.84 -10.724365)" fill="#005493">
          <tspan font-family="Arial" font-weight="bold" font-size="29" fill="#005493" x="70.14282" y="26">Import</tspan>
        </text>
      </g>
      <g id="Line_44">
        <path d="M 1053.3105 709.5293 C 1130.2561 253.73027 633.3941 183.08691 428.0758 363.43924" marker-end="url(#FilledArrow_Marker_3)" stroke="#005493" stroke-linecap="round" stroke-linejoin="round" stroke-dasharray="10.0,30.0" stroke-width="10"/>
      </g>
      <g id="Graphic_49">
        <path d="M 933.4021 714.5293 L 1155.9021 714.5293 C 1160.8727 714.5293 1164.9021 718.5587 1164.9021 723.5293 L 1164.9021 781.0293 C 1164.9021 785.9999 1160.8727 790.0293 1155.9021 790.0293 L 933.4021 790.0293 C 928.4316 790.0293 924.4021 785.9999 924.4021 781.0293 L 924.4021 723.5293 C 924.4021 718.5587 928.4316 714.5293 933.4021 714.5293 Z" fill="white"/>
        <path d="M 933.4021 714.5293 L 1155.9021 714.5293 C 1160.8727 714.5293 1164.9021 718.5587 1164.9021 723.5293 L 1164.9021 781.0293 C 1164.9021 785.9999 1160.8727 790.0293 1155.9021 790.0293 L 933.4021 790.0293 C 928.4316 790.0293 924.4021 785.9999 924.4021 781.0293 L 924.4021 723.5293 C 924.4021 718.5587 928.4316 714.5293 933.4021 714.5293 Z" stroke="#005493" stroke-linecap="round" stroke-linejoin="round" stroke-width="10"/>
        <text transform="translate(929.4021 735.8049)" fill="#005493">
          <tspan font-family="Arial" font-weight="bold" font-size="29" fill="#005493" x="26.048096" y="26">Visualisieren</tspan>
        </text>
      </g>
    </g>
    <g id="Canvas_1_konzepte">
      <title>konzepte</title>
      <g id="Graphic_106">
        <text transform="translate(-530.6179 310.62465)" fill="black">
          <tspan font-family="Arial" font-size="32" fill="black" x="0" y="29">Zählen</tspan>
        </text>
      </g>
      <g id="Line_111">
        <line x1="-427.7741" y1="343.47763" x2="-370.14004" y2="358.7937" stroke="black" stroke-linecap="round" stroke-linejoin="round" stroke-width="3"/>
      </g>
      <g id="Graphic_81">
        <text transform="translate(-307.74055 165.87097)" fill="black">
          <tspan font-family="Arial" font-style="italic" font-size="32" fill="black" x="0" y="29">Kodieren</tspan>
        </text>
      </g>
      <g id="Line_83">
        <line x1="-187.07418" y1="207.91784" x2="-43.11317" y2="267.72866" stroke="black" stroke-linecap="round" stroke-linejoin="round" stroke-width="3"/>
      </g>
      <g id="Graphic_191">
        <text transform="translate(-258.55655 661.7023)" fill="black">
          <tspan font-family="Arial" font-style="italic" font-size="32" fill="black" x="0" y="29">Gruppieren</tspan>
        </text>
      </g>
      <g id="Line_194">
        <line x1="-187.46645" y1="656.7023" x2="-209.5449" y2="598.7169" stroke="black" stroke-linecap="round" stroke-linejoin="round" stroke-width="3"/>
      </g>
      <g id="Graphic_241">
        <text transform="translate(-438.5468 678.8356)" fill="black">
          <tspan font-family="Arial" font-style="italic" font-size="32" fill="black" x="0" y="29">Filtern</tspan>
        </text>
      </g>
      <g id="Graphic_242">
        <text transform="translate(-576.8945 511)" fill="black">
          <tspan font-family="Arial" font-style="italic" font-size="32" fill="black" x="0" y="29">Entscheiden</tspan>
        </text>
      </g>
      <g id="Graphic_243">
        <text transform="translate(-530.3299 602.4757)" fill="black">
          <tspan font-family="Arial" font-style="italic" font-size="32" fill="black" x="0" y="29">Sortieren</tspan>
        </text>
      </g>
      <g id="Line_244">
        <line x1="-395.48612" y1="608.02734" x2="-323.97043" y2="594.7599" stroke="black" stroke-linecap="round" stroke-linejoin="round" stroke-width="3"/>
      </g>
      <g id="Line_245">
        <line x1="-360.28277" y1="673.8356" x2="-252.31258" y2="598.7169" stroke="black" stroke-linecap="round" stroke-linejoin="round" stroke-width="3"/>
      </g>
      <g id="Line_246">
        <line x1="-395.7695" y1="545.2456" x2="-323.97043" y2="557.3754" stroke="black" stroke-linecap="round" stroke-linejoin="round" stroke-width="3"/>
      </g>
      <g id="Graphic_247">
        <text transform="translate(-397.98205 824.4849)" fill="black">
          <tspan font-family="Arial" font-style="italic" font-size="32" fill="black" x="0" y="29">Transponieren</tspan>
        </text>
      </g>
      <g id="Line_248">
        <line x1="-198.37122" y1="819.4849" x2="-69.99749" y2="788.5528" stroke="black" stroke-linecap="round" stroke-linejoin="round" stroke-width="3"/>
      </g>
      <g id="Graphic_249">
        <text transform="translate(24.388375 824.4849)" fill="black">
          <tspan font-family="Arial" font-style="italic" font-size="32" fill="black" x="0" y="29">Matrizen erzeugen</tspan>
        </text>
      </g>
      <g id="Line_250">
        <line x1="112.3631" y1="819.4849" x2="59.551225" y2="791.5933" stroke="black" stroke-linecap="round" stroke-linejoin="round" stroke-width="3"/>
      </g>
      <g id="Graphic_264">
        <text transform="translate(-685.1743 436.5293)" fill="black">
          <tspan font-family="Arial" font-style="italic" font-size="32" fill="black" x="0" y="29">Matrixoperationen</tspan>
        </text>
      </g>
      <g id="Line_265">
        <line x1="-468.0102" y1="431.5293" x2="-370.71546" y2="405.84056" stroke="black" stroke-linecap="round" stroke-linejoin="round" stroke-width="3"/>
      </g>
      <g id="Graphic_266">
        <text transform="translate(-424.93505 232.06274)" fill="black">
          <tspan font-family="Arial" font-style="italic" font-size="32" fill="black" x="0" y="29">Randomisieren</tspan>
        </text>
      </g>
      <g id="Line_267">
        <line x1="-204.7163" y1="264.42814" x2="-81.28274" y2="279.6006" stroke="black" stroke-linecap="round" stroke-linejoin="round" stroke-width="3"/>
      </g>
      <g id="Graphic_268">
        <text transform="translate(-221.28175 873.3809)" fill="black">
          <tspan font-family="Arial" font-style="italic" font-size="32" fill="black" x="0" y="29">Hierarchisieren</tspan>
        </text>
      </g>
      <g id="Line_269">
        <line x1="-89.24063" y1="868.3809" x2="-9.437047" y2="791.5933" stroke="black" stroke-linecap="round" stroke-linejoin="round" stroke-width="3"/>
      </g>
    </g>
    <g id="Canvas_1_Techniken_2">
      <title>Techniken 2</title>
      <g id="Graphic_239">
        <text transform="translate(-76.28274 272.72866)" fill="black">
          <tspan font-family="Arial" font-style="italic" font-weight="bold" font-size="32" fill="black" x="0" y="29">Umwandeln</tspan>
        </text>
      </g>
      <g id="Graphic_238">
        <text transform="translate(-416.78574 363.7937)" fill="black">
          <tspan font-family="Arial" font-style="italic" font-weight="bold" font-size="32" fill="black" x="0" y="29">Zusammenfassen</tspan>
        </text>
      </g>
      <g id="Graphic_237">
        <text transform="translate(-318.97043 556.67005)" fill="black">
          <tspan font-family="Arial" font-style="italic" font-weight="bold" font-size="32" fill="black" x="0" y="29">Strukturieren</tspan>
        </text>
      </g>
      <g id="Line_234">
        <line x1="46.57809" y1="314.77553" x2="165.73645" y2="399.53103" stroke="black" stroke-linecap="round" stroke-linejoin="round" stroke-width="3"/>
      </g>
      <g id="Line_233">
        <line x1="-179.16503" y1="405.84056" x2="165.1572" y2="484.8949" stroke="black" stroke-linecap="round" stroke-linejoin="round" stroke-width="3"/>
      </g>
      <g id="Line_232">
        <line x1="-113.03293" y1="565.91565" x2="165.1572" y2="541.4439" stroke="black" stroke-linecap="round" stroke-linejoin="round" stroke-width="3"/>
      </g>
      <g id="Line_231">
        <line x1="46.876405" y1="744.5464" x2="167.37524" y2="655.5946" stroke="black" stroke-linecap="round" stroke-linejoin="round" stroke-width="3"/>
      </g>
      <g id="Graphic_228">
        <text transform="translate(-64.99749 749.5464)" fill="black">
          <tspan font-family="Arial" font-style="italic" font-weight="bold" font-size="32" fill="black" x="0" y="29">Umformen</tspan>
        </text>
      </g>
      <g id="Graphic_223">
        <text transform="translate(-172.54336 121.87097)" fill="black">
          <tspan font-family="Arial" font-style="italic" font-size="32" fill="black" x="0" y="29">Identität</tspan>
        </text>
      </g>
      <g id="Line_222">
        <line x1="-95.47983" y1="163.91784" x2="-6.627529" y2="267.72866" stroke="black" stroke-linecap="round" stroke-linejoin="round" stroke-width="3"/>
      </g>
      <g id="Graphic_254">
        <text transform="translate(435.7636 -103.10515)" fill="white">
          <tspan font-family="Arial" font-style="italic" font-size="32" fill="white" x="0" y="29">Bäume</tspan>
        </text>
      </g>
      <g id="Graphic_253">
        <text transform="translate(142.31569 -103.10515)" fill="white">
          <tspan font-family="Arial" font-style="italic" font-size="32" fill="white" x="0" y="29">Mengen</tspan>
        </text>
      </g>
    </g>
  </g>
</svg>
